<svg xmlns="http://www.w3.org/2000/svg" width="453.024" height="114.888" viewBox="0 0 453.024 114.888">
    <path data-name="패스 91580" d="M324.426 75.873c3.947-.106 7.333-1.207 9.468-3.961a131.759 131.759 0 0 0 8.04-12.108c.529-.862.142-2.214.178-3.341-1.193.357-2.685.405-3.534 1.121-6.052 5.116-9.873 11.769-14.152 18.289zm40.407-16.1c-.378.488-.758.973-1.133 1.463-4.34 5.664-8.659 11.342-13.035 16.983-1.1 1.417-2.19 2.673-2.15 4.662a4.79 4.79 0 0 1-1.7 3.285 52.843 52.843 0 0 1-5.693 3.679c-.465.294-1.353.748-1.3.9a21.988 21.988 0 0 0 2.3 5.461 3.383 3.383 0 0 0 4.4.633 21.823 21.823 0 0 0 5.427-4.025c4.34-4.811 6.98-10.534 9.212-16.42 2.022-5.335 3.668-10.753 3.671-16.619zM43.892 95.1c.057 1.963 1.111 2.857 2.838 1.845a24.315 24.315 0 0 0 6.4-5 131.663 131.663 0 0 0 18.778-28.9 24.019 24.019 0 0 0 1.492-4.683 2.088 2.088 0 0 0-.474-1.843 2.246 2.246 0 0 0-2 .03 31.827 31.827 0 0 0-5.306 3.984c-8.771 8.975-15.864 18.979-20.538 30.4a38.353 38.353 0 0 0-1.19 4.167zm89.184-.745c-.143 2.625.859 3.472 2.643 2.507a20.552 20.552 0 0 0 5.733-4.287 128.182 128.182 0 0 0 19.7-30.136 15.859 15.859 0 0 0 1.184-3.782c.134-.726.04-2-.382-2.188a3.131 3.131 0 0 0-2.529.252 29.08 29.08 0 0 0-4.923 3.852 97 97 0 0 0-20.138 29.568 33.821 33.821 0 0 0-1.287 4.212zm30.593-86.031c-.628 1.01-1.009 1.654-1.42 2.281q-23.471 35.87-46.9 71.762c-2.046 3.148-3.536 6.615-5.257 9.947a3.475 3.475 0 0 0-.513 1.614c.042.958-.032 2.346.563 2.75a3.6 3.6 0 0 0 3.115.076 20.176 20.176 0 0 0 5.552-4.229c4.591-5.726 8.985-11.6 13.245-17.547 5.662-7.906 12.3-14.8 21.554-19.06a28.562 28.562 0 0 1 6.664-1.954c3.271-.61 4.492.461 4.541 3.555.006.434 0 .869 0 1.726.977-1.468 1.831-2.628 2.543-3.86a2.339 2.339 0 0 1 2.379-1.314c2.652.085 5.309.027 8.267.027-.527.865-.861 1.457-1.237 2.026-4.633 7-9.432 13.915-13.847 21.036-2.753 4.44-5 9.163-7.318 13.828a11.957 11.957 0 0 0-.995 4.2c-.168 1.848.83 2.58 2.6 1.706a21.057 21.057 0 0 0 5.669-3.789 122.51 122.51 0 0 0 10.087-11.262c6.619-8.631 12.968-17.446 19.366-26.226a3.21 3.21 0 0 1 3.1-1.532c2.407.118 4.825.033 7.738.033l-11.141 16.288.277.206c1.19-1.278 2.293-2.64 3.586-3.818 3.838-3.5 7.647-7.043 11.692-10.325a12.792 12.792 0 0 1 5.233-2.231c3.568-.766 5.994 1.17 6.243 4.611a13.94 13.94 0 0 1-2.269 8.856c-2.538 3.845-5.235 7.6-8.009 11.3-2.625 3.5-5.58 6.784-8.1 10.343a13.323 13.323 0 0 0-2.115 5.385c-.355 2.117 1.179 3.17 3.256 2.284a16.647 16.647 0 0 0 5.321-3.282c3.49-3.552 7.1-7.114 9.871-11.148 7.41-10.785 14.407-21.82 21.565-32.757.205-.315.381-.649.574-.989H220c1.683-2.053 4.084-2.455 6.382-2.612 4.277-.293 8.577-.355 12.866-.353a3.1 3.1 0 0 0 3.008-1.625c4.041-6.309 8.245-12.526 12.226-18.868a3.992 3.992 0 0 1 4.162-2.115c2.44.156 4.9.038 7.81.038L251.643 45.95c11.649-.793 23.264 1.908 33.8-4.208l.426.477a15.935 15.935 0 0 1-2.175 2.306 20.11 20.11 0 0 1-11.06 3.584c-6.9.295-13.814.332-20.721.366a3.134 3.134 0 0 0-3.02 1.6c-7.043 10.857-14.258 21.616-21.18 32.537a67.118 67.118 0 0 0-5.072 10.622c-.4.985-.192 2.955.5 3.381a4.772 4.772 0 0 0 3.836-.162 17.254 17.254 0 0 0 5.074-3.631 120.869 120.869 0 0 0 9.873-11.877c5.775-8.33 11.184-16.884 16.683-25.381a2.726 2.726 0 0 1 2.724-1.426c2.742.093 5.488.028 8.659.028-.525.876-.876 1.507-1.271 2.111-5.729 8.734-11.552 17.415-17.151 26.221a84.134 84.134 0 0 0-5.476 10.475c-.5 1.114-.051 2.609-.036 3.929 1.447-.179 3.153.042 4.3-.607 5.85-3.313 10.211-8.132 14.113-13.278 6.886-9.075 13.633-18.241 20.365-27.416a3.2 3.2 0 0 1 3.1-1.513c2.395.113 4.8.031 7.623.031-3.878 5.734-7.547 11.166-11.217 16.6.082.064.166.128.251.192 1.009-1.1 1.942-2.284 3.05-3.3 4.113-3.772 8.206-7.573 12.485-11.178a12.2 12.2 0 0 1 4.648-2.127c3.959-1.044 6.72 1.025 6.871 4.9a13.77 13.77 0 0 1-2.223 8.309c-2.691 4.049-5.572 7.991-8.5 11.895-2.549 3.4-5.391 6.6-7.858 10.041a14.276 14.276 0 0 0-2.132 5c-.5 2.113 1.133 3.443 3.219 2.567a21.057 21.057 0 0 0 5.853-3.544A58.882 58.882 0 0 0 313 77.05a52.331 52.331 0 0 1 19.477-20.445 18.2 18.2 0 0 1 8.7-2.648c3.494-.179 5.621 1.276 6.367 4.507 1 4.314-.592 7.963-3.715 11.038a29.032 29.032 0 0 1-16.288 8.019c-3.4.521-5.681 1.837-6.934 4.806-1.329 3.143-3.059 6.183-3.953 9.428-1.108 4.018 1.012 5.9 5.385 5.14 5.8-1.008 10.371-4.243 14.8-7.648.344-.265.347-.9.568-1.334 1.051-2.079 1.8-4.39 3.3-6.141a8.34 8.34 0 0 1 4.754-2.374 4.041 4.041 0 0 0 2.914-1.488c8.07-10.281 16.448-20.364 22.295-32.018a13.611 13.611 0 0 1 3.482-4.038 3.267 3.267 0 0 1 2.887-.392c.6.353.837 1.758.71 2.633a10.332 10.332 0 0 1-4.355 6.606c-3.929 2.966-5.2 6.428-4.3 11.108a72 72 0 0 1 1.229 13.327c.036 10.5-8.611 21.084-19.036 23.722a22.9 22.9 0 0 1-3.349.607c-6.065.6-8.958-1.476-10.7-7.7a51.924 51.924 0 0 1-5.5 3.327c-3.416 1.548-6.847 3.288-10.486 4.129-5.944 1.373-10.758-2.312-11.259-8.086-.133-1.543-.021-3.1-.021-5.085a69.811 69.811 0 0 1-4.7 5.377c-2.41 2.252-5.013 4.325-7.6 6.4a7.921 7.921 0 0 1-2.326 1.087c-5.439 1.906-9.589-.659-9.93-6.1a15.659 15.659 0 0 1 2.359-9.793c1.99-3.051 4.174-6 6.4-8.9 2.936-3.831 6.049-7.543 8.967-11.385a10.075 10.075 0 0 0 1.661-3.582c.417-1.661-.673-2.491-2.31-1.736a13.432 13.432 0 0 0-4.107 2.655c-5.575 5.861-11.283 11.638-16.412 17.834-5.3 6.4-10.015 13.238-14.92 19.926a2.9 2.9 0 0 1-2.766 1.393c-2.661-.1-5.331-.03-8.417-.03l8.124-11.687-.163-.11c-2.277 2.25-4.47 4.579-6.853 6.726-2.567 2.318-5.337 4.435-8.952 5.2-3.679.777-6.433-.709-6.883-4.2a65.467 65.467 0 0 1-.078-8.637c-2.353 2.442-4.992 5.363-7.846 8.086a16.963 16.963 0 0 1-8.312 4.737c-4.277.87-7.139-.763-7.653-4.783a60.018 60.018 0 0 1-.069-7.985c-2.183 2.305-4.741 5.208-7.544 7.886a22.633 22.633 0 0 1-5.252 3.758c-5.509 2.817-11.079 1.428-11.528-6.028a15.149 15.149 0 0 1 2.515-9.384c2.042-3.1 4.317-6.062 6.588-9.018 2.863-3.724 5.882-7.344 8.71-11.092a10.547 10.547 0 0 0 1.657-3.594c.387-1.436-.636-2.275-2.091-1.726a12.861 12.861 0 0 0-3.411 1.945c-6.783 5.36-12.267 11.81-17.407 18.51-5.054 6.588-9.947 13.286-14.84 19.981a3.108 3.108 0 0 1-2.958 1.429c-2.678-.092-5.361-.027-8.551-.027 2.4-3.36 4.6-6.442 6.805-9.524l-.294-.256c-.487.5-.946 1.031-1.468 1.5-2.619 2.333-5.05 4.911-7.932 6.914-4.741 3.295-9.075 1.725-10.455-3.621a57.907 57.907 0 0 1-.961-6.816 39.606 39.606 0 0 1-2.929 3.567c-2.483 2.449-4.839 5.11-7.711 7.09-4.142 2.853-8.019 1.748-9.759-2.793-1.076-2.81-1.128-5.966-1.613-8.81-.027.035-.351.506-.725.938-2.533 2.926-4.835 6.08-7.707 8.678a16.437 16.437 0 0 1-6.609 3.274 5.064 5.064 0 0 1-6.631-3.938 65.66 65.66 0 0 1-.556-8.61c-1.745 1.968-3.694 4.442-5.958 6.628a30.8 30.8 0 0 1-6.3 4.912c-5.41 3-10.037.5-10.228-5.376-.065-2 .2-4.005.34-6.324-.5.585-.85.991-1.2 1.393-2.128 2.431-4.148 4.955-6.426 7.255a18.628 18.628 0 0 1-4.584 3.327c-3.768 1.957-7.2.737-8.8-3.029a18.969 18.969 0 0 1-1.155-4.179 34.881 34.881 0 0 1-.263-3.945c-2.33 2.6-4.608 5.4-7.183 7.93A18.966 18.966 0 0 1 47.63 98.9c-3.186 1.5-5.93.6-7.7-2.292-2.712-4.44-2.2-9.128-.741-13.736 2.115-6.684 6.593-12.048 11.564-17.047A43.5 43.5 0 0 1 64.814 55.9a30.291 30.291 0 0 1 6.486-1.837c3.31-.563 4.442.459 4.484 3.588.006.413 0 .826 0 1.771 1.091-1.674 1.864-2.969 2.762-4.183a2.423 2.423 0 0 1 1.463-1.032c3-.1 6-.047 9.334-.047-.494.824-.82 1.413-1.19 1.977-4.616 7.012-9.4 13.934-13.8 21.062-2.746 4.444-5 9.163-7.308 13.832a12.586 12.586 0 0 0-1.014 4.387c-.137 1.487.929 2.31 2.272 1.6a20.223 20.223 0 0 0 5.7-4 94.754 94.754 0 0 0 8.428-10.8q23.693-35.963 47.141-72.068a3.6 3.6 0 0 1 3.675-1.907c2.53.15 5.079.039 8.047.039-.535.9-.88 1.527-1.275 2.129Q116.55 46.276 93.113 82.165a75.914 75.914 0 0 0-5.54 10.854c-.479 1.089.089 2.582.176 3.89 1.449-.214 3.079-.11 4.3-.723a13.579 13.579 0 0 0 4.1-3.285 111.442 111.442 0 0 0 8.419-10.564q23.875-36.08 47.481-72.316a3.329 3.329 0 0 1 3.351-1.73c2.6.121 5.219.033 8.269.033z" transform="translate(75.256 15.268)" style="fill:#fff;fill-rule:evenodd"/>
    <path data-name="패스 91581" d="m105.658 54.833.039-.691a6.941 6.941 0 0 0-6.461-1.616c-.695.135-1.238.935-1.851 1.429.655.529 1.313 1.51 1.964 1.505a60.4 60.4 0 0 0 6.309-.627zm32.959-51.9-11.049 5.231c.675.782 1.047 1.216 1.421 1.648 9.5 10.972 8.734 25.277-1.832 35.407a43.668 43.668 0 0 1-14.226 8.919c-.79.317-1.56.679-2.531 1.1a20.013 20.013 0 0 1 5.8 13.87 43.645 43.645 0 0 1-1.417 12.081c-3.762 13.511-12.064 24.011-25.511 30.686a25.177 25.177 0 0 1-16.719 2.512 9.727 9.727 0 0 1-7.94-8.493c-.569-5.831 1.757-10.747 5.753-15a34.249 34.249 0 0 1 17.86-10.273 29.072 29.072 0 0 1 3.674-.348l.249.789a19.141 19.141 0 0 1-2.316.86 32.347 32.347 0 0 0-12 5.358 24.152 24.152 0 0 0-10.092 16.612 8.591 8.591 0 0 0-.026 2.25c.6 4.706 4.155 6.915 8.957 5.157a22.679 22.679 0 0 0 7.339-4.238C96.082 96.067 103.95 82.9 106.819 67.388c.651-3.521.443-7.176.618-10.5-3.3.242-6.037.617-8.774.593-2.374-.02-3.961-1.5-4.1-3.238-.128-1.645 1.4-3.115 3.737-3.635a11.246 11.246 0 0 1 9.779 2.357c12.43-5.8 23.437-33.226 16.86-42.329-.615.471-1.232.913-1.808 1.4a129.666 129.666 0 0 0-19.047 20.306 309.91 309.91 0 0 0-22.83 34.025c-7.6 13.046-16.55 25.222-28.574 35.208-7.425 6.168-15.737 10.977-25.77 12.555-6.342 1-12.741 1.259-18.793-1.355-4.926-2.128-7.723-5.728-7.617-10.84.112-5.278 3.065-8.951 8.178-11.188a3.182 3.182 0 0 1 1.155-.337 3.6 3.6 0 0 1 1.062.319 3.381 3.381 0 0 1-.408.949 2.928 2.928 0 0 1-.851.5C4.88 94.757 2.7 99.7 4.16 104.6c1.128 3.79 4.956 6.2 10.056 6.723 8.842.9 16.523-1.454 22.594-7.315a144.616 144.616 0 0 0 14.3-15.643c6.6-8.58 12.715-17.491 18.775-26.413 10.485-15.437 22.326-29.836 37.2-41.91 5.034-4.086 10.485-7.734 16.034-11.792-1.227-.752-2.429-1.624-3.757-2.279a39.592 39.592 0 0 0-22.325-3.713C70.9 5.276 49.027 15.911 31.886 34.486A53.81 53.81 0 0 0 21.033 51.4a35.08 35.08 0 0 0-2.263 9.477c-.8 8.946 7.294 14.067 16.253 12.551a35.868 35.868 0 0 0 16.606-7.951c2.2-1.767 4.131-3.809 6.27-5.642a5.3 5.3 0 0 1 1.913-.564c-.037.56.167 1.305-.146 1.654C52.632 68.754 44.5 75.17 32.96 75.919 20 76.761 11.284 67.746 13.1 55.837c1.431-9.379 6.354-17.275 12.738-24.422 10.628-11.9 24.5-19.465 39.934-24.782A112.793 112.793 0 0 1 100.5.011c9.092-.171 17.684 1.54 24.967 6.809 3.491-1.505 6.889-3.028 10.348-4.419a9.465 9.465 0 0 1 2.686-.239q.057.385.116.769z" transform="translate(-.5)" style="fill:#fff;fill-rule:evenodd"/>
    <path data-name="패스 91582" d="M147.7 26.825c-4.065-.584-5.331-1.443-5.454-3.545-.139-2.321 2.389-4.931 5.5-5.613 2.066-.452 4.123-.508 5.775.824a3.856 3.856 0 0 1 1.3 4.781c-1.839 4.775-5.938 7.8-11.51 9.657a4.025 4.025 0 0 1-1.957-.016c2.246-1.929 5.252-3.27 6.346-6.088z" transform="translate(284.047 32.232)" style="fill:#fff;fill-rule:evenodd"/>
    <path data-name="패스 91583" d="M115.744 20.767c.015-3.2 3.259-6.2 6.632-6.131a4.234 4.234 0 0 1 4.418 4.175c.036 3.106-3.283 6.272-6.575 6.268a4.274 4.274 0 0 1-4.475-4.312z" transform="translate(232.311 27.143)" style="fill:#fff;fill-rule:evenodd"/>
</svg>
